<svg id="visual" viewBox="0 0 900 600" width="900" height="600" xmlns="http://www.w3.org/2000/svg" xmlns:xlink="http://www.w3.org/1999/xlink" version="1.1"><rect x="0" y="0" width="900" height="600" fill="#002233"></rect><path d="M0 171L16.7 169.2C33.3 167.3 66.7 163.7 100 148C133.3 132.3 166.7 104.7 200 94C233.3 83.3 266.7 89.7 300 101.2C333.3 112.7 366.7 129.3 400 125.8C433.3 122.3 466.7 98.7 500 88.8C533.3 79 566.7 83 600 88.3C633.3 93.7 666.7 100.3 700 100.8C733.3 101.3 766.7 95.7 800 89.3C833.3 83 866.7 76 883.3 72.5L900 69L900 0L883.3 0C866.7 0 833.3 0 800 0C766.7 0 733.3 0 700 0C666.7 0 633.3 0 600 0C566.7 0 533.3 0 500 0C466.7 0 433.3 0 400 0C366.7 0 333.3 0 300 0C266.7 0 233.3 0 200 0C166.7 0 133.3 0 100 0C66.7 0 33.3 0 16.7 0L0 0Z" fill="#0066FF" stroke-linecap="round" stroke-linejoin="miter"></path></svg>